<svg width="36" height="22" fill="none" xmlns="http://www.w3.org/2000/svg"><g id="streamline:shipping-truck-solid"><g id="&lt;Group&gt;"><path id="&lt;Path&gt;" d="M22.883 2H.112c-.082 0-.13.068-.106.147l.529 1.525c.023.045.07.079.117.079H21.05c.07 0 .117.045.117.113v11.261c0 .068-.047.113-.117.113H4.75a.123.123 0 0 0-.117.158l.54 1.525c.012.045.059.079.118.079h17.592c.058 0 .117-.056.117-.113V2.113c0-.068-.059-.113-.117-.113Z" fill="url('#paint0_linear_117_421')"/><path id="&lt;Path&gt;_2" d="M11 7.871V6.129c0-.064-.047-.129-.118-.129H1.116a.12.12 0 0 0-.106.168l.53 1.755c.023.051.059.077.118.077h9.224c.07 0 .118-.052.118-.129Z" fill="url('#paint1_linear_117_421')"/><path id="&lt;Path&gt;_3" d="M11 10.872V9.128c0-.064-.048-.128-.12-.128H2.125c-.084 0-.144.09-.12.18l.55 1.73c.012.051.06.09.108.09h8.217c.072 0 .12-.064.12-.128Z" fill="url('#paint2_linear_117_421')"/><path id="&lt;Path&gt;_4" d="M11 13.872v-1.744c0-.064-.049-.128-.122-.128h-7.75a.131.131 0 0 0-.123.167l.563 1.743c.012.051.06.09.11.09h7.2c.073 0 .122-.064.122-.128Z" fill="url('#paint3_linear_117_421')"/><path id="&lt;Path&gt;_5" d="m35.989 9.296-4.96-7.25C31.006 2.01 30.97 2 30.926 2h-6.8c-.069 0-.115.045-.115.113v7.828c0 .057.046.113.115.113h7.245c.058 0 .115-.056.115-.113V8.414a.114.114 0 0 0-.115-.113h-5.474a.114.114 0 0 1-.114-.113V3.867c0-.068.046-.114.114-.114h4.092c.034 0 .068.023.091.046l4.126 6.04a.076.076 0 0 1 .023.057v5.226c0 .068-.046.113-.115.113h-10c-.057 0-.114.057-.114.113v1.539c0 .056.057.113.114.113h11.772a.114.114 0 0 0 .114-.113V9.364a.212.212 0 0 0-.011-.068Z" fill="url('#paint4_linear_117_421')"/></g></g><defs><linearGradient id="paint0_linear_117_421" x1="29.281" y1="3.414" x2="14.75" y2="15.994" gradientUnits="userSpaceOnUse"><stop stop-color="#FF4F28"/><stop offset=".557" stop-color="#FFA490"/><stop offset="1" stop-color="#FF4F28"/></linearGradient><linearGradient id="paint1_linear_117_421" x1="7.886" y1="4.5" x2="9.828" y2="8.483" gradientUnits="userSpaceOnUse"><stop offset=".622" stop-color="#FF4F28"/><stop offset=".74" stop-color="#FFA490"/><stop offset=".889" stop-color="#FF4F28"/></linearGradient><linearGradient id="paint2_linear_117_421" x1="8.198" y1="7.5" x2="10.263" y2="11.311" gradientUnits="userSpaceOnUse"><stop offset=".622" stop-color="#FF4F28"/><stop offset=".74" stop-color="#FFA490"/><stop offset=".889" stop-color="#FF4F28"/></linearGradient><linearGradient id="paint3_linear_117_421" x1="8.509" y1="10.5" x2="10.7" y2="14.095" gradientUnits="userSpaceOnUse"><stop offset=".622" stop-color="#FF4F28"/><stop offset=".74" stop-color="#FFA490"/><stop offset=".889" stop-color="#FF4F28"/></linearGradient><linearGradient id="paint4_linear_117_421" x1="27.971" y1="4.868" x2="21.042" y2="16.778" gradientUnits="userSpaceOnUse"><stop stop-color="#FF4F28"/><stop offset=".505" stop-color="#FFA490"/><stop offset="1" stop-color="#FF4F28"/></linearGradient></defs></svg>