<svg width="35" height="36" viewBox="0 0 35 36" fill="none" xmlns="http://www.w3.org/2000/svg">
<circle cx="17.5" cy="17.9736" r="17.5" fill="#434343"/>
<path d="M15.1989 22.4736C15.0582 22.4738 14.9188 22.4458 14.7888 22.3913C14.6588 22.3368 14.5407 22.2568 14.4414 22.156L10.3271 17.9935C10.2248 17.8935 10.1431 17.7739 10.087 17.6417C10.0308 17.5094 10.0013 17.3672 10 17.2232C9.9988 17.0793 10.0259 16.9366 10.0798 16.8033C10.1337 16.6701 10.2132 16.5491 10.3138 16.4473C10.4144 16.3455 10.534 16.265 10.6657 16.2105C10.7974 16.156 10.9385 16.1286 11.0807 16.1299C11.223 16.1311 11.3636 16.161 11.4943 16.2178C11.625 16.2746 11.7433 16.3572 11.8421 16.4607L15.1989 19.8569L23.1842 11.7779C23.3863 11.5805 23.657 11.4712 23.9379 11.4737C24.2188 11.4761 24.4875 11.5901 24.6862 11.7911C24.8848 11.9921 24.9975 12.264 25 12.5482C25.0024 12.8324 24.8944 13.1062 24.6992 13.3107L15.9564 22.156C15.857 22.2568 15.7389 22.3368 15.609 22.3913C15.479 22.4458 15.3396 22.4738 15.1989 22.4736Z" fill="white"/>
</svg>
