<svg width="37" height="37" viewBox="0 0 37 37" fill="none" xmlns="http://www.w3.org/2000/svg">
<circle cx="18.5" cy="18.5" r="18.5" fill="white" fill-opacity="0.28"/>
<path d="M15.5455 24C15.3954 24.0002 15.2467 23.9696 15.1081 23.9102C14.9694 23.8507 14.8435 23.7635 14.7375 23.6535L10.3489 19.1126C10.2397 19.0035 10.1527 18.873 10.0928 18.7287C10.0329 18.5845 10.0014 18.4293 10 18.2723C9.99872 18.1153 10.0276 17.9596 10.0851 17.8142C10.1426 17.6689 10.2274 17.5369 10.3347 17.4258C10.442 17.3148 10.5696 17.227 10.7101 17.1675C10.8505 17.1081 11.001 17.0782 11.1528 17.0795C11.3045 17.0809 11.4545 17.1135 11.5939 17.1755C11.7334 17.2375 11.8595 17.3275 11.9649 17.4405L15.5455 21.1454L24.0632 12.332C24.2787 12.1165 24.5674 11.9974 24.8671 12C25.1667 12.0027 25.4534 12.1271 25.6653 12.3464C25.8772 12.5656 25.9974 12.8622 26 13.1723C26.0026 13.4823 25.8874 13.781 25.6792 14.0041L16.3535 23.6535C16.2475 23.7635 16.1215 23.8507 15.9829 23.9102C15.8442 23.9696 15.6956 24.0002 15.5455 24Z" fill="white"/>
</svg>
