<svg width="100" height="40" viewBox="0 0 100 40" fill="none" xmlns="http://www.w3.org/2000/svg">
<path d="M11.376 36H1.12V25.28H4V33.44H11.376V36ZM13.0225 31.056V30.224C13.0225 27.328 14.3185 24.96 18.9745 24.96H19.5505C24.2065 24.96 25.5025 27.328 25.5025 30.224V31.056C25.5025 33.952 24.2065 36.32 19.5505 36.32H18.9745C14.3185 36.32 13.0225 33.952 13.0225 31.056ZM15.9025 30.64C15.9025 32.272 15.9025 33.76 19.2625 33.76C22.6225 33.76 22.6225 32.272 22.6225 30.64C22.6225 29.024 22.6225 27.536 19.2625 27.536C15.9025 27.536 15.9025 29.024 15.9025 30.64ZM36.1648 30.624H39.0448V35.808C37.5408 36.128 35.9088 36.32 34.2768 36.32H33.7008C28.8048 36.32 27.4288 33.952 27.4288 31.056V30.224C27.4288 27.328 28.8048 24.96 33.7008 24.96H34.2768C35.8128 24.96 37.3168 25.152 38.7248 25.488V28.096C37.1568 27.664 35.3808 27.504 34.1968 27.504C30.3728 27.504 30.3728 28.816 30.3728 30.64C30.3728 32.464 30.3728 33.792 34.1968 33.792C34.7568 33.792 35.4288 33.76 36.1648 33.696V30.624ZM41.2919 25.28H44.1719V36H41.2919V25.28ZM51.5529 33.76C53.8409 33.76 54.0169 33.232 54.0169 32.832C54.0169 32.08 53.3449 31.968 51.4889 31.92C49.8569 31.872 46.3049 31.76 46.3049 28.64V28.432C46.3049 26.592 47.4889 24.96 51.5529 24.96H52.1289C53.5849 24.96 54.9929 25.152 56.3049 25.488V28.128C54.7529 27.76 53.2329 27.536 51.6649 27.536C49.3449 27.536 49.1849 28.064 49.1849 28.432C49.1849 29.2 49.8889 29.312 51.6969 29.36C53.2169 29.392 56.8969 29.504 56.8969 32.656V32.864C56.8969 34.688 55.7129 36.32 51.6329 36.32H51.0569C49.3769 36.32 47.7769 36.128 46.2569 35.808V33.12C47.9849 33.504 49.9209 33.76 51.5529 33.76ZM65.235 36H62.355V27.84H58.195V25.28H69.411V27.84H65.235V36ZM71.0888 25.28H73.9688V36H71.0888V25.28ZM76.0538 31.056V30.224C76.0538 27.328 77.3178 24.96 81.8458 24.96H82.4218C83.8618 24.96 85.2378 25.152 86.5498 25.488V28.096C85.0778 27.664 83.4298 27.504 82.3418 27.504C78.9978 27.504 78.9978 28.816 78.9978 30.64C78.9978 32.464 78.9978 33.792 82.3418 33.792C83.4298 33.792 85.0778 33.616 86.5498 33.184V35.808C85.2378 36.128 83.8618 36.32 82.4218 36.32H81.8458C77.3178 36.32 76.0538 33.952 76.0538 31.056ZM93.6779 33.76C95.9659 33.76 96.1419 33.232 96.1419 32.832C96.1419 32.08 95.4699 31.968 93.6139 31.92C91.9819 31.872 88.4299 31.76 88.4299 28.64V28.432C88.4299 26.592 89.6139 24.96 93.6779 24.96H94.2539C95.7099 24.96 97.1179 25.152 98.4299 25.488V28.128C96.8779 27.76 95.3579 27.536 93.7899 27.536C91.4699 27.536 91.3099 28.064 91.3099 28.432C91.3099 29.2 92.0139 29.312 93.8219 29.36C95.3419 29.392 99.0219 29.504 99.0219 32.656V32.864C99.0219 34.688 97.8379 36.32 93.7579 36.32H93.1819C91.5019 36.32 89.9019 36.128 88.3819 35.808V33.12C90.1099 33.504 92.0459 33.76 93.6779 33.76Z" fill="white"/>
<path d="M0.78 18.96L7.202 11.29L0.78 3.62V2.58H5.382L9.932 8.04L14.508 2.58H19.084V3.62L12.662 11.29L19.084 18.96V20H14.508L9.932 14.566L5.382 20H0.78V18.96ZM21.4734 18.96L27.8954 11.29L21.4734 3.62V2.58H26.0754L30.6254 8.04L35.2014 2.58H39.7774V3.62L33.3554 11.29L39.7774 18.96V20H35.2014L30.6254 14.566L26.0754 20H21.4734V18.96ZM59.2887 20H42.6227V2.58H47.3027V15.84H59.2887V20Z" fill="white"/>
</svg>
