<svg width="36" height="22" viewBox="0 0 36 22" fill="none" xmlns="http://www.w3.org/2000/svg">
<g id="streamline:shipping-truck-solid">
<g id="&#60;Group&#62;">
<path id="&#60;Path&#62;" d="M22.8826 2H0.111728C0.0295227 2 -0.0174402 2.06777 0.00604696 2.14684L0.534509 3.67169C0.557996 3.71687 0.60497 3.75075 0.651945 3.75075H2.49568H8.64933H21.0506C21.121 3.75075 21.168 3.79593 21.168 3.8637V15.125C21.168 15.1928 21.121 15.238 21.0506 15.238H8.64933H7.0522H4.75045C4.66824 15.238 4.60953 15.317 4.63301 15.3961L5.17323 16.9209C5.18497 16.9661 5.23195 17 5.29067 17H22.8826C22.9413 17 23 16.9435 23 16.887V2.11295C23 2.04518 22.9413 2 22.8826 2Z" fill="url(#paint0_linear_117_421)"/>
<path id="&#60;Path&#62;_2" d="M11 7.87097V6.12903C11 6.06452 10.9529 6 10.8823 6H1.11635C1.03399 6 0.975151 6.09032 1.01045 6.16774L1.53993 7.92258C1.56346 7.97419 1.59876 8 1.65759 8H10.8823C10.9529 8 11 7.94839 11 7.87097Z" fill="url(#paint1_linear_117_421)"/>
<path id="&#60;Path&#62;_3" d="M11 10.8718V9.12821C11 9.0641 10.9522 9 10.8804 9H2.12493C2.0412 9 1.98139 9.08974 2.00532 9.17949L2.55553 10.9103C2.56749 10.9615 2.61533 11 2.66317 11H10.8804C10.9522 11 11 10.9359 11 10.8718Z" fill="url(#paint2_linear_117_421)"/>
<path id="&#60;Path&#62;_4" d="M11 13.8718V12.1282C11 12.0641 10.9511 12 10.8778 12H3.12767C3.0421 12 2.98098 12.0897 3.00543 12.1667L3.56774 13.9103C3.57996 13.9615 3.62886 14 3.67776 14H10.8778C10.9511 14 11 13.9359 11 13.8718Z" fill="url(#paint3_linear_117_421)"/>
<path id="&#60;Path&#62;_5" d="M35.9886 9.29638L31.0286 2.04525C31.0057 2.01131 30.9714 2 30.9257 2H24.1257C24.0572 2 24.0114 2.04525 24.0114 2.11312V9.94118C24.0114 9.99774 24.0572 10.0543 24.1257 10.0543H31.3714C31.4286 10.0543 31.4857 9.99774 31.4857 9.94118V8.41403C31.4857 8.34615 31.4286 8.30091 31.3714 8.30091H25.8972C25.8286 8.30091 25.7829 8.24434 25.7829 8.18778V3.86652C25.7829 3.79864 25.8286 3.75339 25.8972 3.75339H29.9886C30.0229 3.75339 30.0572 3.77602 30.08 3.79864L34.2057 9.83937C34.221 9.85445 34.2286 9.8733 34.2286 9.89593V15.1222C34.2286 15.19 34.1829 15.2353 34.1143 15.2353H24.1143C24.0571 15.2353 24 15.2919 24 15.3484V16.8869C24 16.9434 24.0571 17 24.1143 17H35.8857C35.9543 17 36 16.9434 36 16.8869V9.36425C36 9.34163 35.9962 9.319 35.9886 9.29638Z" fill="url(#paint4_linear_117_421)"/>
</g>
</g>
<defs>
<linearGradient id="paint0_linear_117_421" x1="29.2813" y1="3.41422" x2="14.7502" y2="15.994" gradientUnits="userSpaceOnUse">
<stop stop-color="#FF4F28"/>
<stop offset="0.557481" stop-color="#FFA490"/>
<stop offset="1" stop-color="#FF4F28"/>
</linearGradient>
<linearGradient id="paint1_linear_117_421" x1="7.88623" y1="4.5" x2="9.82845" y2="8.48307" gradientUnits="userSpaceOnUse">
<stop offset="0.62224" stop-color="#FF4F28"/>
<stop offset="0.740094" stop-color="#FFA490"/>
<stop offset="0.888929" stop-color="#FF4F28"/>
</linearGradient>
<linearGradient id="paint2_linear_117_421" x1="8.1976" y1="7.5" x2="10.2626" y2="11.3113" gradientUnits="userSpaceOnUse">
<stop offset="0.62224" stop-color="#FF4F28"/>
<stop offset="0.740094" stop-color="#FFA490"/>
<stop offset="0.888929" stop-color="#FF4F28"/>
</linearGradient>
<linearGradient id="paint3_linear_117_421" x1="8.50898" y1="10.5" x2="10.7" y2="14.0947" gradientUnits="userSpaceOnUse">
<stop offset="0.62224" stop-color="#FF4F28"/>
<stop offset="0.740094" stop-color="#FFA490"/>
<stop offset="0.888929" stop-color="#FF4F28"/>
</linearGradient>
<linearGradient id="paint4_linear_117_421" x1="27.9708" y1="4.86761" x2="21.0416" y2="16.7782" gradientUnits="userSpaceOnUse">
<stop stop-color="#FF4F28"/>
<stop offset="0.505124" stop-color="#FFA490"/>
<stop offset="1" stop-color="#FF4F28"/>
</linearGradient>
</defs>
</svg>
